<!DOCTYPE svg PUBLIC "-//W3C//DTD SVG 1.1//EN" "http://www.w3.org/Graphics/SVG/1.1/DTD/svg11.dtd">

<!-- Uploaded to: SVG Repo, www.svgrepo.com, Transformed by: SVG Repo Mixer Tools -->
<svg fill="#ffffff" width="64px" height="64px" viewBox="0 0 24 24" xmlns="http://www.w3.org/2000/svg" data-name="Layer 1">

<g id="SVGRepo_bgCarrier" stroke-width="0"/>

<g id="SVGRepo_tracerCarrier" stroke-linecap="round" stroke-linejoin="round"/>

<g id="SVGRepo_iconCarrier">

<path d="M19,4.5H5a3,3,0,0,0-3,3v9a3,3,0,0,0,3,3H19a3,3,0,0,0,3-3v-9A3,3,0,0,0,19,4.5Zm1,12a1,1,0,0,1-1,1H5a1,1,0,0,1-1-1v-9a1,1,0,0,1,1-1H19a1,1,0,0,1,1,1Zm-4-6a3,3,0,0,0-1.51.42,3,3,0,1,0,0,5.16A3,3,0,1,0,16,10.5Zm-2.83,4a1,1,0,0,1-.17,0,1,1,0,0,1,0-2,1,1,0,0,1,.17,0,2.8,2.8,0,0,0,0,1.92Zm2.83,0a1,1,0,1,1,1-1A1,1,0,0,1,16,14.5Z"/>

</g>

</svg>