<svg width="60" height="64" viewBox="0 0 60 64" fill="none" xmlns="http://www.w3.org/2000/svg">
<path d="M44.9083 19.0554V18.0224C44.9083 16.5219 43.7666 15.3041 42.3598 15.3041H7.54842C6.1417 15.3041 5 16.5219 5 18.0224V35.2131C5 36.7136 6.1417 37.9314 7.54842 37.9314H8.51682V23.4101C8.51682 21.0125 10.3466 19.0608 12.5943 19.0608H44.9083V19.0554Z" fill="white" stroke="white" stroke-width="0.0543663"/>
<path d="M44.9082 24.4377H49.9541V23.4047C49.9541 21.9042 48.8124 20.6864 47.4057 20.6864H44.9082H12.5943C11.1875 20.6864 10.0458 21.9042 10.0458 23.4047V37.9314V40.5953C10.0458 42.0958 11.1875 43.3136 12.5943 43.3136H13.5627V37.9314V28.7924C13.5627 26.3948 15.3924 24.4431 17.6401 24.4431H44.9082V24.4377Z" fill="white" stroke="white" stroke-width="0.0543663"/>
<path d="M52.4516 26.0686H51.4832H50.7187H49.9541H44.9083H17.6402C16.2334 26.0686 15.0917 27.2864 15.0917 28.787V37.9314V43.3136V44.1291V44.9446V45.9776C15.0917 47.4781 16.2334 48.6959 17.6402 48.6959H52.4516C53.8583 48.6959 55 47.4781 55 45.9776V28.7924C55 27.2864 53.8583 26.0686 52.4516 26.0686ZM39.5515 37.9314V42.77C39.5515 42.9657 39.5005 43.1505 39.4139 43.3136C39.2355 43.6398 38.9093 43.8573 38.5321 43.8573H36.0347V44.1291V44.9446V45.5046C36.0347 46.1026 35.5759 46.5919 35.0153 46.5919C34.4546 46.5919 33.9959 46.1026 33.9959 45.5046V44.9446V44.1291V43.8573H31.8654C31.4883 43.8573 31.157 43.6398 30.9837 43.3136C30.897 43.156 30.8461 42.9711 30.8461 42.77C30.8461 42.1719 31.3048 41.6826 31.8654 41.6826H33.9959V38.4696H31.6055C31.2283 38.4696 30.9021 38.2521 30.7237 37.9314C30.6371 37.7683 30.5861 37.5835 30.5861 37.3823V31.9946C30.5861 31.3965 31.0448 30.9072 31.6055 30.9072H33.9959V29.2599C33.9959 28.6619 34.4546 28.1726 35.0153 28.1726C35.5759 28.1726 36.0347 28.6619 36.0347 29.2599V30.9072H38.4302C38.9908 30.9072 39.4495 31.3965 39.4495 31.9946C39.4495 32.5926 38.9908 33.0819 38.4302 33.0819H36.0347V36.2949H38.5321C39.0928 36.2949 39.5515 36.7842 39.5515 37.3823V37.9314Z" fill="white" stroke="white" stroke-width="0.0543663"/>
<path d="M36.0347 41.6826H37.5128V38.4696H36.0347V41.6826Z" fill="white" stroke="white" stroke-width="0.0543663"/>
<path d="M32.6249 36.295H33.9959V33.0818H32.6249V36.295Z" fill="white" stroke="white" stroke-width="0.0543663"/>
</svg>
