<svg width="52" height="34" viewBox="0 0 52 34" fill="none" xmlns="http://www.w3.org/2000/svg">
<path d="M40.9083 4.05539V3.02243C40.9083 1.52192 39.7666 0.304115 38.3598 0.304115H3.54842C2.1417 0.304115 1 1.52192 1 3.02243V20.2131C1 21.7136 2.1417 22.9314 3.54842 22.9314H4.51682V8.41013C4.51682 6.01252 6.34659 4.06083 8.5943 4.06083H40.9083V4.05539Z" fill="white" stroke="white" stroke-width="0.0543663"/>
<path d="M40.9082 9.43765H45.9541V8.40469C45.9541 6.90418 44.8124 5.68638 43.4057 5.68638H40.9082H8.59426C7.18753 5.68638 6.04584 6.90418 6.04584 8.40469V22.9314V25.5953C6.04584 27.0958 7.18753 28.3136 8.59426 28.3136H9.56266V22.9314V13.7924C9.56266 11.3948 11.3924 9.44309 13.6401 9.44309H40.9082V9.43765Z" fill="white" stroke="white" stroke-width="0.0543663"/>
<path d="M48.4516 11.0686H47.4832H46.7187H45.9541H40.9083H13.6402C12.2334 11.0686 11.0917 12.2864 11.0917 13.787V22.9314V28.3136V29.1291V29.9446V30.9776C11.0917 32.4781 12.2334 33.6959 13.6402 33.6959H48.4516C49.8583 33.6959 51 32.4781 51 30.9776V13.7924C51 12.2864 49.8583 11.0686 48.4516 11.0686ZM35.5515 22.9314V27.77C35.5515 27.9657 35.5005 28.1505 35.4139 28.3136C35.2355 28.6398 34.9093 28.8573 34.5321 28.8573H32.0347V29.1291V29.9446V30.5046C32.0347 31.1026 31.5759 31.5919 31.0153 31.5919C30.4546 31.5919 29.9959 31.1026 29.9959 30.5046V29.9446V29.1291V28.8573H27.8654C27.4883 28.8573 27.157 28.6398 26.9837 28.3136C26.897 28.156 26.8461 27.9711 26.8461 27.77C26.8461 27.1719 27.3048 26.6826 27.8654 26.6826H29.9959V23.4696H27.6055C27.2283 23.4696 26.9021 23.2521 26.7237 22.9314C26.6371 22.7683 26.5861 22.5835 26.5861 22.3823V16.9946C26.5861 16.3965 27.0448 15.9072 27.6055 15.9072H29.9959V14.2599C29.9959 13.6619 30.4546 13.1726 31.0153 13.1726C31.5759 13.1726 32.0347 13.6619 32.0347 14.2599V15.9072H34.4302C34.9908 15.9072 35.4495 16.3965 35.4495 16.9946C35.4495 17.5926 34.9908 18.0819 34.4302 18.0819H32.0347V21.2949H34.5321C35.0928 21.2949 35.5515 21.7842 35.5515 22.3823V22.9314Z" fill="white" stroke="white" stroke-width="0.0543663"/>
<path d="M32.0347 26.6826H33.5128V23.4696H32.0347V26.6826Z" fill="white" stroke="white" stroke-width="0.0543663"/>
<path d="M28.6249 21.295H29.9959V18.0818H28.6249V21.295Z" fill="white" stroke="white" stroke-width="0.0543663"/>
</svg>
